<svg xmlns="http://www.w3.org/2000/svg" viewBox="0.94 -3.06 33.62 21.12">
	<path d="M 2 0 C 4 0 8 0 12 0 Q 13 0 13 -1 C 13 -2 13 -2 13 -2 H 13 Q 13 -3 14 -3 C 17 -3 21 -3 24 -3 Q 25 -3 25 -2 C 25 3.3 25 7.7 25 9 Q 25 10 24 10 Q 23 10 23 10 Q 22 10 22 11 Q 22 17 22 17 C 22 17 22 18 21 18 Q 20 18 19 18 Q 19 18 19 18 C 17 18 19 16 17 16 C 13.7 16 11.3 16 9 16 Q 8 16 8 17 Q 8 18 7 18 C 5.7 18 3.3 18 2 18 Q 1 18 1 17 C 1 11.3 1 5.7 1 1 Q 1 0 2 0 Z M 24 10.5 H 24 Q 25.5 10.5 25.5 9 Q 25.5 3 25.5 -2 Q 25.5 -3 26.5 -3 V -3 H 33.5 Q 34.5 -3 34.5 -2 Q 34.5 18 34.5 17 Q 34.5 18 33.5 18 H 23.5 Q 22.5 18 22.5 17 V 11 Q 22.5 10.5 23 10.5 H 24 " stroke="#ffff" stroke-width="0.06" fill="none"/>
</svg>